<?xml version="1.0" encoding="UTF-8"?>
<svg xmlns="http://www.w3.org/2000/svg" xmlns:xlink="http://www.w3.org/1999/xlink" width="600pt" height="600pt" viewBox="0 0 600 600" version="1.1">
<g id="surface1">
<path style=" stroke:none;fill-rule:evenodd;fill:rgb(78.431373%,78.431373%,78.431373%);fill-opacity:1;" d="M 413.171875 70.570312 C 412.550781 74.4375 413.046875 78.332031 412.3125 82.359375 C 411.425781 87.214844 408.449219 91.832031 407.382812 96.71875 C 407.011719 98.425781 406.964844 100.664062 406.738281 102.722656 C 406.523438 104.714844 405.894531 107.0625 406.097656 108.722656 C 406.429688 111.488281 408.5625 114.738281 409.742188 117.726562 C 410.722656 120.210938 412.90625 124.558594 413.171875 126.941406 C 413.402344 129.023438 412.761719 131.925781 412.527344 134.441406 C 412.292969 136.960938 411.890625 139.542969 411.667969 141.945312 C 411.183594 147.234375 411.328125 152.816406 410.382812 157.375 C 409.707031 160.652344 407.996094 163.550781 407.382812 166.59375 C 406.644531 170.261719 406.839844 174.496094 406.097656 178.382812 C 403.175781 178.390625 400.359375 178.503906 397.738281 178.808594 C 391.398438 170.621094 384.148438 161.878906 376.949219 153.945312 C 374.847656 151.632812 372.140625 147.054688 369.445312 146.015625 C 366.4375 144.855469 361.894531 146.035156 360.015625 143.015625 C 358.105469 140.925781 356.101562 138.925781 354.015625 137.015625 C 353.949219 136.578125 353.433594 136.59375 353.371094 136.15625 C 351.671875 134.28125 349.886719 132.496094 348.011719 130.800781 C 346.949219 126.632812 349.054688 123.863281 349.511719 120.511719 C 350.007812 119.792969 349.585938 118.15625 349.726562 117.082031 C 349.726562 115.296875 349.726562 113.511719 349.726562 111.722656 C 348.90625 105.9375 350.984375 100.847656 350.796875 95.863281 C 350.601562 90.554688 348.554688 85.664062 348.226562 80.21875 C 353.265625 79.648438 351.46875 71.140625 352.085938 65 C 352.445312 61.429688 354.417969 59.039062 354.871094 56.640625 C 359.15625 54.710938 364.554688 53.894531 371.160156 54.28125 C 372.09375 54.144531 373.582031 54.5625 374.160156 54.070312 C 375.640625 54.332031 377.570312 53.722656 378.660156 54.070312 C 382.59375 55.304688 380.183594 63.007812 382.949219 64.785156 C 384.835938 66 388.964844 65.304688 391.738281 65.429688 C 394.925781 65.570312 397.863281 65.699219 400.738281 65.855469 C 404.585938 67.722656 406.640625 71.386719 413.171875 70.570312 Z M 413.171875 70.570312" id='Dobong-gu'/>
<path style=" stroke:none;fill-rule:evenodd;fill:rgb(78.431373%,78.431373%,78.431373%);fill-opacity:1;" d="M 404.167969 240.96875 C 411.589844 235.457031 423.816406 234.753906 433.746094 231.75 C 435.773438 253.515625 438.148438 274.929688 440.390625 296.480469 C 437.582031 302.886719 435.101562 309.625 432.246094 315.984375 C 422.453125 311.914062 412.046875 308.464844 401.597656 305.054688 C 400.742188 301.695312 399.789062 298.433594 398.597656 295.410156 C 398.164062 294.765625 396.835938 295.023438 395.808594 294.980469 C 395.511719 294.492188 394.316406 294.898438 393.664062 294.765625 C 391.550781 294.898438 389.402344 294.640625 387.234375 294.550781 C 385.046875 294.464844 382.382812 293.832031 380.804688 294.335938 C 378.675781 295.019531 378.886719 297.988281 376.949219 299.054688 C 376.304688 299.054688 375.660156 299.054688 375.019531 299.054688 C 374.722656 298.5625 373.527344 298.972656 372.875 298.839844 C 369.917969 298.578125 368.988281 296.296875 367.089844 294.980469 C 367.089844 294.125 367.089844 293.265625 367.089844 292.410156 C 367.582031 291.902344 367.164062 290.484375 367.300781 289.621094 C 367.300781 288.195312 367.300781 286.765625 367.300781 285.335938 C 366.539062 281.558594 370.171875 280.144531 371.375 277.621094 C 372.742188 274.753906 372.433594 272.097656 373.734375 269.046875 C 379.363281 264.886719 384.785156 260.523438 392.164062 258.117188 C 394.730469 254.105469 396.375 249.179688 399.453125 245.683594 C 401.113281 244.199219 402.6875 242.628906 404.167969 240.96875 Z M 404.167969 240.96875 " id='Dongdaemun-gu'/>
<path style=" stroke:none;fill-rule:evenodd;fill:rgb(78.431373%,78.431373%,78.431373%);fill-opacity:1;" d="M 235.488281 391.859375 C 241.007812 392.636719 246.65625 392.867188 252.847656 392.503906 C 255.277344 392.359375 258.277344 392.785156 260.347656 392.289062 C 261.148438 392.300781 261.703125 392.070312 262.277344 391.859375 C 265.066406 394.816406 267.839844 397.976562 270.636719 401.289062 C 273.25 404.382812 276.164062 408.222656 279.855469 410.078125 C 283.148438 411.734375 287.355469 411.371094 291.855469 412.4375 C 292.546875 415.25 292.988281 418.304688 294 420.792969 C 296.886719 421.480469 300.828125 421.109375 303.859375 421.652344 C 305.652344 425.003906 307.164062 428.632812 308.789062 432.152344 C 306.980469 437 305.492188 443.027344 304.714844 449.730469 C 303.847656 457.25 303.886719 463.386719 305.574219 469.019531 C 302.265625 470.570312 299.640625 472.804688 294 472.019531 C 292.714844 472.019531 291.429688 472.019531 290.140625 472.019531 C 288.308594 470.722656 286.660156 469.273438 284.785156 467.734375 C 283.226562 466.457031 280.601562 465.027344 279.640625 463.234375 C 278.125 460.414062 277.914062 456.3125 277.066406 452.945312 C 276.203125 449.507812 275.1875 446.242188 274.28125 442.871094 C 268.921875 440.945312 264.1875 438.390625 258.421875 436.871094 C 255.0625 436.871094 251.707031 436.871094 248.347656 436.871094 C 246.273438 437.011719 243.632812 436.585938 241.917969 437.085938 C 239.058594 437.085938 236.203125 437.085938 233.34375 437.085938 C 230.984375 437.226562 228.058594 436.800781 226.058594 437.296875 C 224.03125 439.0625 223.890625 442.703125 222.414062 445.015625 C 218.886719 447.648438 214.039062 446.238281 209.765625 447.585938 C 205.730469 448.859375 202.625 453.496094 198.40625 453.375 C 198.929688 450.179688 199.308594 446.84375 199.90625 443.726562 C 201.964844 442.378906 203.171875 439.925781 205.695312 438.800781 C 209.476562 437.105469 214.347656 437.15625 218.769531 435.796875 C 219.847656 431.957031 222.246094 428.769531 223.054688 424.867188 C 223.816406 421.207031 222.957031 417.558594 223.699219 413.507812 C 223.972656 412.015625 225.125 410.40625 225.839844 408.792969 C 228.667969 402.425781 232.074219 396.515625 235.488281 391.859375 Z M 235.488281 391.859375 " id='Dongjak-gu'/>
<path style=" stroke:none;fill-rule:evenodd;fill:rgb(78.431373%,78.431373%,78.431373%);fill-opacity:1;" d="M 246.632812 141.730469 C 249.882812 142.140625 250.613281 140.65625 252.207031 138.945312 C 255.300781 135.613281 258 131.585938 259.921875 128.015625 C 266.21875 133.214844 273.113281 139.277344 279.640625 144.945312 C 281.308594 146.394531 285.535156 148.964844 286.070312 150.734375 C 286.4375 151.953125 285.78125 153.644531 286.070312 154.589844 C 286.070312 156.664062 286.070312 158.734375 286.070312 160.808594 C 286.207031 161.8125 285.789062 163.375 286.285156 164.023438 C 287.121094 170.21875 283.664062 172.121094 282.210938 176.023438 C 282.480469 176.113281 282.648438 176.300781 282.640625 176.667969 C 280.4375 180.78125 278.292969 184.15625 275.351562 187.382812 C 274.050781 188.8125 272.101562 190.125 271.496094 191.671875 C 270.300781 194.722656 270.691406 198.144531 269.566406 201.960938 C 269.070312 202.535156 269.488281 204.027344 269.351562 204.960938 C 269.351562 206.53125 269.351562 208.101562 269.351562 209.675781 C 269.351562 211.105469 269.351562 212.53125 269.351562 213.960938 C 268.859375 214.539062 269.273438 216.027344 269.136719 216.960938 C 269.136719 218.535156 269.136719 220.105469 269.136719 221.675781 C 269.136719 223.460938 269.136719 225.25 269.136719 227.035156 C 264.890625 225.910156 262.949219 227.183594 260.347656 228.75 C 259.078125 229.515625 257.503906 230.296875 256.707031 231.109375 C 253.789062 234.074219 252.699219 239.238281 251.5625 243.109375 C 247.457031 244.792969 243.414062 246.535156 238.917969 247.824219 C 237.636719 251.40625 236.152344 254.78125 233.988281 257.472656 C 233.527344 257.867188 232.417969 257.617188 231.628906 257.683594 C 230.269531 257.824219 228.347656 257.402344 227.34375 257.898438 C 225.34375 257.898438 223.34375 257.898438 221.339844 257.898438 C 219.054688 258.042969 216.199219 257.613281 214.269531 258.113281 C 212.902344 257.960938 212.425781 258.703125 211.910156 259.398438 C 211.035156 260.097656 210.25 260.882812 209.554688 261.757812 C 208.75 262.382812 208.035156 263.097656 207.410156 263.898438 C 207.410156 263.972656 207.410156 264.042969 207.410156 264.113281 C 206.535156 264.808594 205.75 265.597656 205.050781 266.472656 C 204.25 269.167969 204.046875 272.46875 203.550781 275.472656 C 200.410156 273.53125 197.667969 270.976562 194.550781 268.617188 C 191.53125 266.328125 187.746094 264.453125 185.332031 261.757812 C 183.976562 260.238281 183.539062 258.136719 181.902344 256.828125 C 177.671875 256.84375 176.875 253.425781 175.046875 251.039062 C 179.652344 253.222656 185.960938 253.699219 192.835938 253.613281 C 195.292969 250.722656 198.996094 247.464844 201.410156 243.96875 C 203.769531 240.546875 205.449219 236.765625 204.839844 230.679688 C 204.839844 229.320312 204.839844 227.964844 204.839844 226.605469 C 204.839844 223.535156 204.839844 220.460938 204.839844 217.390625 C 204.695312 215.175781 205.121094 212.390625 204.625 210.53125 C 204.625 206.101562 204.625 201.671875 204.625 197.242188 C 205.617188 195.6875 208.101562 194.917969 208.695312 193.171875 C 209.183594 191.738281 208.964844 189.3125 209.125 187.382812 C 210.230469 174.109375 211.273438 159.3125 212.554688 146.875 C 217.488281 147.058594 222.949219 147.109375 227.34375 147.304688 C 228.925781 147.371094 230.773438 147.898438 232.273438 147.304688 C 235.378906 146.074219 235.003906 139.765625 240.417969 141.515625 C 240.714844 142.003906 241.910156 141.597656 242.5625 141.730469 C 243.917969 141.730469 245.273438 141.730469 246.632812 141.730469 Z M 246.632812 141.730469 " id='Eunpyeong-gu'/>
<path style=" stroke:none;fill-rule:evenodd;fill:rgb(78.431373%,78.431373%,78.431373%);fill-opacity:1;" d="M 346.726562 80.644531 C 347.117188 85.980469 349.460938 91.027344 349.511719 96.292969 C 349.546875 100.0625 347.800781 103.683594 348.226562 107.867188 C 347.730469 108.585938 348.152344 110.21875 348.011719 111.292969 C 348.011719 113.082031 348.011719 114.867188 348.011719 116.652344 C 348.789062 122.816406 345.308594 125.28125 346.511719 131.226562 C 347.074219 131.953125 347.726562 132.585938 348.226562 133.371094 C 349.996094 135.320312 351.851562 137.175781 353.800781 138.945312 C 355.710938 141.035156 357.710938 143.035156 359.800781 144.945312 C 361.589844 147.085938 366.152344 146.453125 369.230469 147.304688 C 381.925781 161.1875 394.441406 175.246094 404.167969 192.097656 C 400.222656 198.941406 396.511719 206.019531 392.808594 213.105469 C 390.703125 214.214844 388.953125 215.675781 386.808594 216.746094 C 385.519531 216.886719 383.667969 216.464844 382.734375 216.960938 C 381.449219 216.960938 380.164062 216.960938 378.875 216.960938 C 377.375 216.960938 375.875 216.960938 374.375 216.960938 C 373.441406 217.101562 371.953125 216.683594 371.375 217.175781 C 370.089844 217.175781 368.804688 217.175781 367.515625 217.175781 C 366.015625 217.175781 364.515625 217.175781 363.015625 217.175781 C 361.945312 217.175781 360.871094 217.175781 359.800781 217.175781 C 358.4375 216.324219 356.773438 215.773438 355.726562 214.605469 C 353.898438 207.933594 352.484375 200.84375 350.585938 194.242188 C 345.121094 189.667969 339.214844 185.523438 333.652344 181.167969 C 331.800781 179.71875 330.058594 177.734375 328.078125 176.667969 C 325.140625 175.082031 321.617188 174.890625 318.433594 173.238281 C 316.722656 171.164062 315.21875 168.882812 313.503906 166.808594 C 314.046875 165.5625 315.085938 164.816406 315.433594 163.378906 C 315.929688 162.515625 315.507812 160.738281 315.648438 159.519531 C 315.507812 158.445312 315.929688 156.808594 315.433594 156.089844 C 315.433594 153.875 315.433594 151.660156 315.433594 149.445312 C 315.433594 147.304688 315.433594 145.160156 315.433594 143.015625 C 315.292969 142.011719 315.714844 140.449219 315.21875 139.800781 C 315.21875 137.585938 315.21875 135.371094 315.21875 133.15625 C 315.21875 131.015625 315.21875 128.871094 315.21875 126.726562 C 315.21875 125.726562 315.21875 124.726562 315.21875 123.726562 C 317.933594 118.828125 321.328125 113.773438 324.222656 108.9375 C 325.210938 107.28125 326.679688 105.347656 327.222656 103.792969 C 329.140625 98.300781 328.851562 92.480469 330.867188 86.433594 C 336.113281 84.464844 341.390625 82.527344 346.726562 80.644531 Z M 346.726562 80.644531 " id='Gangbuk-gu'/>
<path style=" stroke:none;fill-rule:evenodd;fill:rgb(78.431373%,78.431373%,78.431373%);fill-opacity:1;" d="M 501.046875 317.699219 C 503.503906 314.804688 506.78125 313.367188 510.476562 311.054688 C 514.308594 308.660156 516.550781 305.523438 521.835938 305.480469 C 526.410156 305.339844 531.554688 305.769531 535.769531 305.269531 C 543.707031 303.402344 548.371094 298.230469 554.632812 294.550781 C 558.386719 292.34375 563.199219 290.738281 566.847656 288.550781 C 566.847656 289.265625 566.847656 289.980469 566.847656 290.691406 C 566.988281 291.769531 566.566406 293.402344 567.0625 294.121094 C 566.953125 298.875 571.789062 298.683594 574.351562 300.765625 C 575 301.261719 576.5625 300.84375 577.566406 300.980469 C 578.03125 304.015625 578.199219 307.347656 579.496094 309.554688 C 578.667969 314.023438 574.808594 318.015625 575.421875 323.273438 C 575.609375 324.890625 577.589844 326.808594 577.992188 329.058594 C 578.484375 331.808594 577.691406 334.984375 578.207031 337.417969 C 578.535156 338.953125 580.101562 340.175781 580.351562 341.492188 C 579.195312 343.550781 578.199219 345.769531 576.921875 347.707031 C 570.894531 349.339844 565.308594 351.378906 558.273438 353.707031 C 555.390625 354.664062 552.304688 355.6875 549.058594 356.707031 C 546.390625 357.546875 541.042969 358.464844 539.84375 359.921875 C 538.898438 361.070312 539.109375 364.230469 538.984375 366.78125 C 538.867188 369.148438 538.933594 371.816406 538.769531 373.640625 C 538.558594 375.988281 536.945312 377.925781 535.769531 379.855469 C 532.664062 384.953125 530.117188 388.882812 526.980469 394.003906 C 524.714844 393.253906 523.082031 393.769531 521.195312 392.929688 C 519.203125 392.046875 518.339844 389.695312 516.480469 389.074219 C 513.910156 388.210938 510.917969 388.914062 507.476562 388.214844 C 505.496094 384.738281 505.101562 380.574219 502.976562 377.5 C 501.234375 374.980469 497.90625 374.101562 496.332031 371.496094 C 498.542969 365.253906 503.398438 356.398438 499.332031 349.636719 C 497.695312 349.34375 495.953125 349.15625 493.972656 349.207031 C 492.5625 347.976562 491.625 346.269531 490.332031 344.917969 C 492.0625 335.863281 492.308594 325.320312 498.261719 320.484375 C 499.277344 319.648438 500.207031 318.71875 501.046875 317.699219 Z M 501.046875 317.699219 " id='Gangdong-gu'/>
<path id= 'Gangseo-gu' style=" stroke:none;fill-rule:evenodd;fill:rgb(78.431373%,78.431373%,78.431373%);fill-opacity:1;" d="M 57.804688 227.464844 C 63.882812 230.851562 70.179688 234.953125 75.59375 239.039062 C 77.414062 240.414062 79.648438 241.640625 81.164062 243.109375 C 82.980469 244.863281 84.460938 247.472656 86.09375 249.542969 C 87.773438 251.664062 89.277344 254.085938 91.023438 255.972656 C 93.835938 259 97.5 261.1875 100.242188 264.117188 C 103.691406 267.800781 105.769531 272.816406 109.457031 276.546875 C 112.191406 279.3125 116.871094 280.886719 120.601562 282.976562 C 122.074219 283.800781 123.574219 284.910156 125.105469 285.761719 C 126.761719 286.6875 128.761719 287.304688 130.035156 288.335938 C 131.53125 289.550781 132.769531 291.863281 134.320312 293.695312 C 135.878906 295.535156 137.835938 297.148438 138.820312 298.835938 C 140.320312 301.40625 140.949219 304.417969 142.464844 306.765625 C 144.863281 310.492188 149.082031 313.3125 152.324219 316.199219 C 155.785156 319.277344 159.480469 322.03125 162.828125 325.199219 C 163.792969 327.378906 163.914062 330.398438 164.113281 333.34375 C 164.113281 333.488281 164.113281 333.628906 164.113281 333.773438 C 161.539062 333.773438 158.96875 333.773438 156.398438 333.773438 C 153.859375 333.023438 151.703125 331.894531 148.464844 331.84375 C 146.820312 333.839844 145.695312 336.359375 144.179688 338.488281 C 144.105469 342.988281 143.539062 346.992188 143.539062 351.5625 C 141.175781 355.058594 139.109375 358.855469 137.105469 362.710938 C 133.394531 363.441406 130.097656 366.582031 126.390625 366.78125 C 124.953125 366.859375 122.25 366.039062 120.601562 365.710938 C 116.019531 364.796875 111.933594 363.582031 109.886719 360.566406 C 109.039062 359.316406 108.484375 357.148438 107.742188 355.421875 C 106.144531 351.691406 104.695312 348.378906 103.242188 344.917969 C 102.449219 343.027344 102.003906 340.839844 101.097656 339.5625 C 100.246094 338.351562 97.726562 336.324219 96.597656 336.132812 C 94 335.683594 90.445312 337.363281 88.023438 336.988281 C 86.609375 339.21875 85.425781 341.675781 84.167969 344.0625 C 80.492188 343.808594 77.082031 343.679688 73.449219 343.417969 C 70.558594 343.210938 65.261719 342.183594 62.519531 342.777344 C 60.367188 343.242188 58.007812 347.148438 56.519531 348.777344 C 54.476562 351.007812 52.621094 352.9375 50.515625 354.777344 C 49.371094 352.53125 48.269531 350.457031 47.300781 347.917969 C 46.507812 345.839844 45.789062 342.273438 44.300781 340.847656 C 43.21875 339.808594 40.328125 339.1875 38.515625 338.488281 C 32.289062 336.085938 26.191406 333.722656 20.511719 331.417969 C 20.296875 325.558594 18.09375 321.6875 16.222656 317.484375 C 17.960938 315.214844 21.304688 315.59375 22.867188 313.199219 C 23.582031 312.105469 23.570312 309.828125 23.941406 308.054688 C 25.019531 302.898438 26.523438 297.253906 27.796875 292.835938 C 30.152344 291.742188 32.527344 290.785156 35.300781 289.621094 C 37.324219 288.769531 41.210938 287.878906 42.371094 285.976562 C 43.707031 283.792969 43.472656 280.105469 43.871094 276.976562 C 44.277344 273.824219 44.664062 270.679688 44.945312 267.542969 C 46.589844 266.015625 48.285156 264.332031 50.515625 262.402344 C 53.292969 259.996094 57.253906 258.359375 56.089844 252.542969 C 56.585938 251.824219 56.164062 250.1875 56.304688 249.113281 C 57.109375 243.429688 52.480469 238.371094 53.730469 233.039062 C 54.257812 230.785156 56.910156 229.828125 57.804688 227.464844 Z M 57.804688 227.464844 "/>
<path id='Geumcheon-gu' style=" stroke:none;fill-rule:evenodd;fill:rgb(78.431373%,78.431373%,78.431373%);fill-opacity:1;" d="M 175.472656 455.515625 C 179.78125 455.109375 181.519531 452.132812 184.902344 450.800781 C 188.636719 452.496094 192.527344 458.8125 197.335938 455.730469 C 198.164062 457.757812 199.441406 459.339844 200.335938 461.304688 C 202.210938 462.144531 204.15625 462.910156 205.910156 463.875 C 205.859375 465.46875 205.5625 466.816406 205.695312 468.589844 C 205.339844 468.890625 205.339844 470.648438 205.695312 470.949219 C 206.238281 479.453125 207.5 489.09375 208.480469 497.3125 C 208.84375 500.335938 208.773438 503.8125 209.550781 506.097656 C 210.390625 508.566406 213.347656 510.566406 214.054688 512.957031 C 216.097656 513.484375 217.835938 514.316406 219.839844 514.886719 C 220.355469 517.585938 221.273438 519.882812 221.984375 522.390625 C 221.722656 523.488281 220.628906 523.75 220.054688 524.53125 C 213.039062 526.015625 211.257812 532.738281 209.335938 539.320312 C 205.871094 539.605469 203.027344 543.074219 199.480469 543.609375 C 195.195312 544.253906 191.015625 542.511719 185.976562 542.964844 C 182.996094 531.449219 179.0625 517.625 175.6875 505.242188 C 174.828125 502.09375 174.046875 494.609375 171.828125 493.027344 C 170.527344 492.09375 167.792969 492.25 166.042969 492.167969 C 164.800781 477.546875 158.71875 467.769531 154.683594 455.945312 C 155.753906 455.945312 156.824219 455.945312 157.898438 455.945312 C 159.1875 456.300781 161.964844 456.300781 163.253906 455.945312 C 164.46875 455.945312 165.683594 455.945312 166.898438 455.945312 C 167.691406 455.808594 169.035156 456.222656 169.472656 455.730469 C 170.613281 455.730469 171.757812 455.730469 172.902344 455.730469 C 173.691406 455.59375 175.035156 456.007812 175.472656 455.515625 Z M 175.472656 455.515625 "/>
<path id='Guro-gu' style=" stroke:none;fill-rule:evenodd;fill:rgb(78.431373%,78.431373%,78.431373%);fill-opacity:1;" d="M 183.832031 445.871094 C 183.96875 446.59375 183.554688 447.863281 184.046875 448.230469 C 184.046875 448.65625 184.046875 449.085938 184.046875 449.515625 C 181.039062 450.9375 179.277344 453.605469 175.257812 454.015625 C 174.464844 454.152344 173.125 453.738281 172.6875 454.230469 C 171.542969 454.230469 170.402344 454.230469 169.257812 454.230469 C 168.464844 454.367188 167.121094 453.953125 166.6875 454.445312 C 165.472656 454.445312 164.257812 454.445312 163.042969 454.445312 C 161.398438 454.445312 159.757812 454.445312 158.113281 454.445312 C 156.796875 454.332031 155.011719 454.691406 154.039062 454.230469 C 153.171875 450.636719 154.683594 446.582031 153.183594 443.726562 C 152.589844 442.601562 149.894531 441.339844 148.898438 440.726562 C 147.328125 439.765625 145.363281 438.203125 143.96875 438.15625 C 142.761719 438.117188 140.742188 439.324219 139.679688 439.871094 C 138.464844 440.496094 136.617188 441.253906 135.609375 442.011719 C 134.574219 442.796875 132.191406 445.878906 131.75 447.15625 C 130.78125 449.957031 131.949219 454.285156 129.605469 455.300781 C 128.445312 456.285156 127.375 457.355469 126.390625 458.515625 C 124.875 459.855469 123.445312 461.285156 122.105469 462.804688 C 121.636719 463.550781 121.140625 464.269531 120.390625 464.734375 C 119.230469 465.714844 118.15625 466.785156 117.175781 467.949219 C 115.65625 469.289062 114.226562 470.714844 112.890625 472.234375 C 111.773438 473.421875 111.164062 475.039062 109.675781 475.449219 C 107.0625 476.164062 102.734375 475.824219 100.242188 475.449219 C 97.761719 475.074219 95.804688 473.378906 93.597656 473.304688 C 89.15625 473.160156 85.144531 475.640625 81.167969 475.878906 C 78.953125 476.011719 77.007812 475.410156 74.523438 475.234375 C 77.0625 470.039062 79.621094 464.0625 82.238281 458.515625 C 83.148438 456.59375 84.808594 454.492188 84.8125 452.730469 C 84.816406 450.386719 82.523438 447.183594 81.167969 444.15625 C 80.285156 442.1875 77.488281 437.300781 77.523438 435.582031 C 77.542969 434.6875 78.742188 432.765625 79.453125 431.296875 C 83.234375 423.480469 87.421875 416.027344 88.667969 406.863281 C 88.546875 405.484375 87.210938 405.320312 86.742188 404.289062 C 89.984375 404.617188 92.964844 405.210938 95.957031 405.789062 C 96.929688 408.101562 97.421875 410.898438 98.957031 412.648438 C 99.1875 413.003906 100.871094 413.003906 101.101562 412.648438 C 102.601562 412.648438 104.101562 412.648438 105.601562 412.648438 C 107.316406 412.507812 109.601562 412.933594 110.960938 412.433594 C 113.371094 411.496094 115.550781 408.820312 118.03125 406.648438 C 118.992188 405.808594 120.257812 404.976562 121.460938 403.863281 C 123.328125 402.132812 124.15625 400.261719 127.25 400.859375 C 127.617188 401.351562 128.882812 400.941406 129.605469 401.074219 C 131.390625 401.074219 133.179688 401.074219 134.964844 401.074219 C 135.882812 404.300781 137.136719 407.191406 137.964844 410.503906 C 140.097656 411.0625 141.992188 413.011719 144.609375 413.292969 C 147.921875 413.644531 151.574219 412.4375 155.539062 412.863281 C 156.191406 412.730469 157.386719 413.136719 157.683594 412.648438 C 159.308594 411.699219 160.492188 408.671875 161.542969 406.433594 C 162.601562 404.175781 163.175781 401.785156 164.542969 400.21875 C 166.554688 401.109375 168.242188 402.445312 170.328125 403.648438 C 171.9375 404.574219 175.089844 405.476562 176.117188 407.078125 C 176.714844 408.011719 177.003906 410.082031 177.402344 411.578125 C 178.671875 416.347656 179.613281 421.382812 180.1875 426.796875 C 181.675781 428.8125 184.101562 429.882812 183.402344 434.082031 C 183.539062 434.804688 183.128906 436.074219 183.617188 436.441406 C 183.617188 437.65625 183.617188 438.871094 183.617188 440.085938 C 183.753906 440.804688 183.34375 442.074219 183.832031 442.441406 C 183.832031 443.585938 183.832031 444.726562 183.832031 445.871094 Z M 183.832031 445.871094 "/>
<path id='Gwanak-gu' style=" stroke:none;fill-rule:evenodd;fill:rgb(78.431373%,78.431373%,78.431373%);fill-opacity:1;" d="M 297.429688 518.960938 C 295.515625 520.878906 293.363281 522.960938 291 525.175781 C 288.898438 527.148438 286.808594 529.730469 284.355469 531.390625 C 281.964844 533.011719 278.914062 534.308594 275.78125 536.105469 C 272.957031 537.726562 269.921875 540.507812 267.207031 541.035156 C 265.234375 541.421875 262.871094 541.175781 260.777344 541.25 C 258.652344 541.324219 256.398438 541.375 254.132812 541.464844 C 250.550781 541.609375 244.144531 542.453125 240.84375 541.894531 C 238.253906 541.453125 236.382812 538.789062 233.773438 537.820312 C 231.96875 535.109375 232.261719 529.160156 230.128906 527.105469 C 228.179688 525.222656 224.707031 526.222656 221.769531 524.960938 C 225.292969 522.566406 221.382812 517.585938 220.914062 514.03125 C 219.226562 513.070312 217.234375 512.421875 215.125 511.886719 C 214.34375 509.671875 211.539062 507.644531 210.839844 505.242188 C 210.164062 502.929688 210.140625 499.515625 209.769531 496.453125 C 209.417969 493.578125 209.050781 490.574219 208.695312 487.667969 C 207.597656 478.628906 207.023438 470.570312 206.980469 462.804688 C 205.238281 461.832031 203.300781 461.054688 201.410156 460.230469 C 200.515625 458.480469 199.351562 457.003906 198.621094 455.085938 C 203.390625 454.496094 206.726562 449.9375 210.410156 448.871094 C 215.167969 447.496094 220.117188 448.953125 223.699219 445.871094 C 224.660156 443.542969 225.464844 441.0625 226.484375 438.796875 C 229.058594 438.796875 231.628906 438.796875 234.203125 438.796875 C 236.203125 438.65625 238.773438 439.082031 240.417969 438.582031 C 243.277344 438.582031 246.132812 438.582031 248.992188 438.582031 C 252.492188 438.582031 255.992188 438.582031 259.492188 438.582031 C 264.148438 440.359375 268.863281 442.074219 273.210938 444.15625 C 274.960938 450.839844 276.722656 457.503906 278.355469 464.304688 C 282.15625 467.359375 285.816406 470.558594 289.714844 473.519531 C 290.859375 474.015625 292.929688 473.59375 294.429688 473.734375 C 295.222656 473.597656 296.566406 474.011719 297.003906 473.519531 C 301.246094 474.117188 303.042969 471.132812 305.574219 470.734375 C 304.894531 476.574219 306.351562 479.589844 308.148438 483.164062 C 311.371094 489.578125 314.742188 497.015625 318.4375 501.8125 C 316.835938 502.210938 314.933594 502.308594 313.507812 502.882812 C 308.058594 508.152344 302.699219 513.511719 297.429688 518.960938 Z M 297.429688 518.960938 "/>
<path id='Gwangjin-gu' style=" stroke:none;fill-rule:evenodd;fill:rgb(78.431373%,78.431373%,78.431373%);fill-opacity:1;" d="M 415.097656 373.425781 C 416.089844 367.203125 418.183594 362.078125 418.3125 354.992188 C 422.09375 349.910156 426.136719 345.648438 428.601562 339.132812 C 431.101562 332.523438 431.277344 324.71875 433.316406 317.269531 C 434.253906 313.851562 436.238281 310.550781 437.605469 307.195312 C 439.054688 303.648438 440.070312 300.015625 441.890625 297.121094 C 447.488281 296.105469 453.246094 297.429688 458.179688 296.050781 C 462.625 294.808594 466.441406 290.226562 472.96875 291.550781 C 474.53125 291.203125 473.558594 293.390625 473.828125 294.335938 C 473.039062 298.023438 468.574219 300.859375 468.253906 304.625 C 468.0625 306.894531 470.03125 309.699219 470.613281 312.125 C 471.488281 315.789062 470.503906 320.070312 472.96875 322.414062 C 473.898438 322.414062 474.828125 322.414062 475.757812 322.414062 C 476.476562 322.910156 478.109375 322.488281 479.1875 322.628906 C 480.398438 322.628906 481.613281 322.628906 482.828125 322.628906 C 481.6875 325.433594 480.980469 328.03125 480.472656 331.203125 C 479.996094 334.175781 479.910156 337.804688 478.972656 340.847656 C 478.089844 343.695312 475.753906 347.375 474.042969 350.707031 C 472.34375 354.003906 469.800781 356.765625 467.824219 359.28125 C 465.796875 361.863281 463.488281 364.480469 461.179688 367.425781 C 459.203125 369.953125 456.742188 374.472656 454.535156 375.570312 C 451.570312 377.042969 447.640625 377.097656 443.820312 377.285156 C 442.820312 377.285156 441.820312 377.285156 440.820312 377.285156 C 439.390625 377.285156 437.960938 377.285156 436.53125 377.285156 C 435.882812 377.417969 434.6875 377.007812 434.390625 377.5 C 426.46875 377.632812 420.113281 376.199219 415.097656 373.425781 Z M 415.097656 373.425781 "/>
<path id='Gangnam-gu' style=" stroke:none;fill-rule:evenodd;fill:rgb(78.431373%,78.431373%,78.431373%);fill-opacity:1;" d="M 346.941406 379.429688 C 348.375 377.921875 350.011719 376.785156 351.65625 375.355469 C 353.191406 374.023438 354.589844 371.957031 356.371094 371.28125 C 357.71875 370.773438 360 370.726562 361.730469 370.425781 C 366.066406 369.671875 369.28125 369.496094 374.160156 369.78125 C 381.015625 370.183594 385.332031 371.140625 390.023438 373.210938 C 401.355469 378.214844 410.425781 387.257812 423.671875 388.644531 C 424.140625 389.75 423.769531 391.691406 423.886719 393.144531 C 423.886719 394.574219 423.886719 396.003906 423.886719 397.433594 C 424.023438 398.292969 423.609375 399.710938 424.101562 400.21875 C 424.101562 401.433594 424.101562 402.648438 424.101562 403.863281 C 424.101562 405.289062 424.101562 406.71875 424.101562 408.148438 C 424.238281 408.941406 423.824219 410.285156 424.316406 410.71875 C 423.835938 414.882812 425.394531 416.320312 426.671875 418.867188 C 427.527344 420.5625 428.054688 422.542969 428.816406 423.582031 C 429.722656 424.820312 431.941406 426.167969 433.53125 427.4375 C 435.210938 428.777344 436.714844 430.292969 438.460938 431.296875 C 440.183594 432.285156 442.40625 433.046875 444.464844 434.082031 C 446.449219 435.082031 448.414062 436.550781 450.25 437.085938 C 455.480469 438.609375 462.140625 438.5625 467.183594 440.085938 C 468.28125 441.488281 469.726562 442.542969 470.828125 443.941406 C 471.421875 445.777344 471.789062 447.839844 472.542969 449.515625 C 476.652344 452.546875 481.40625 454.9375 485.402344 458.089844 C 485.777344 460.804688 486.28125 463.335938 486.6875 465.804688 C 487.109375 468.378906 487.132812 471.253906 487.972656 473.519531 C 488.441406 474.785156 489.851562 476.449219 490.761719 477.808594 C 494.832031 483.890625 498.9375 489.722656 501.476562 496.882812 C 499.101562 497.726562 495.367188 496.617188 492.902344 497.742188 C 490.78125 498.707031 490.328125 502.429688 488.617188 504.601562 C 487.734375 505.714844 485.414062 507.566406 483.902344 508.03125 C 481.441406 508.78125 478.523438 508.125 476.183594 508.671875 C 474.355469 509.097656 473.148438 510.703125 471.46875 511.03125 C 469.605469 511.394531 467.59375 510.617188 465.039062 510.816406 C 462.917969 508.972656 462.03125 506.390625 459.679688 504.386719 C 457.835938 502.8125 455.195312 502.09375 453.464844 500.527344 C 452.347656 499.515625 449.550781 495.585938 448.964844 493.882812 C 448.964844 492.738281 448.964844 491.597656 448.964844 490.453125 C 448.828125 489.800781 449.238281 488.609375 448.75 488.308594 C 448.917969 486.429688 448.4375 485.195312 448.535156 483.378906 C 446.652344 482.160156 445.28125 480.167969 442.964844 479.308594 C 436.558594 476.9375 428.507812 479.53125 423.242188 481.878906 C 421.300781 485.007812 419.589844 488.371094 417.242188 491.097656 C 410.246094 491.246094 405.121094 493.265625 399.882812 495.167969 C 394.414062 487.632812 393.394531 475.652344 390.878906 465.160156 C 388.753906 462.859375 386.539062 460.644531 384.234375 458.515625 C 381.332031 457.132812 377.8125 456.367188 375.660156 454.230469 C 374.679688 453.070312 373.609375 451.996094 372.445312 451.015625 C 372.371094 450.734375 372.070312 450.679688 372.015625 450.371094 C 371.105469 449.28125 370.109375 448.28125 369.015625 447.371094 C 365.917969 444.121094 366.101562 437.425781 365.589844 430.867188 C 365.328125 427.53125 365.605469 423.644531 364.730469 421.007812 C 363.789062 418.171875 359.191406 416.285156 358.085938 413.292969 C 357.222656 410.957031 357.25 407.675781 356.800781 404.933594 C 356.316406 401.996094 356.054688 398.53125 355.300781 396.144531 C 354.378906 393.234375 352.320312 390.597656 351.011719 388 C 349.53125 385.058594 348.273438 382.238281 346.941406 379.429688 Z M 346.941406 379.429688 "/>
<path id='Jongno-gu' style=" stroke:none;fill-rule:evenodd;fill:rgb(78.431373%,78.431373%,78.431373%);fill-opacity:1;" d="M 308.574219 292.40625 C 302.726562 296.132812 295.929688 298.90625 288.214844 300.765625 C 285.460938 298.300781 282.53125 296.015625 280.070312 293.265625 C 279.371094 292.390625 278.585938 291.605469 277.710938 290.90625 C 275.785156 288.90625 273.804688 285.425781 273.851562 282.335938 C 273.878906 280.6875 274.921875 278.28125 275.566406 276.117188 C 276.855469 271.8125 278.199219 268.019531 279.425781 263.902344 C 280.0625 261.757812 281.058594 259.367188 281.140625 257.472656 C 281.261719 254.65625 280.265625 251.652344 279.640625 249.113281 C 279.019531 246.59375 278.242188 244.183594 277.496094 241.398438 C 275.167969 240.226562 272.417969 239.472656 270.421875 237.96875 C 270.421875 237.683594 270.421875 237.394531 270.421875 237.109375 C 270.917969 236.53125 270.5 235.042969 270.636719 234.109375 C 270.636719 232.539062 270.636719 230.964844 270.636719 229.394531 C 270.636719 227.964844 270.636719 226.539062 270.636719 225.109375 C 271.132812 224.53125 270.714844 223.039062 270.851562 222.109375 C 270.851562 220.535156 270.851562 218.964844 270.851562 217.390625 C 270.851562 215.964844 270.851562 214.535156 270.851562 213.105469 C 271.347656 212.527344 270.929688 211.039062 271.066406 210.105469 C 271.066406 208.535156 271.066406 206.960938 271.066406 205.390625 C 271.457031 199.964844 271.375 195.671875 272.996094 192.101562 C 274.375 189.0625 278.070312 187.070312 280.070312 184.171875 C 281.503906 182.089844 281.996094 180.039062 283.496094 177.957031 C 288.714844 177.457031 293.0625 176.089844 298.285156 175.597656 C 300.109375 177.632812 302.566406 179.035156 304.929688 180.527344 C 307.90625 187.710938 308.582031 195.238281 310.71875 202.816406 C 312.882812 210.492188 317.890625 217.191406 318.007812 226.609375 C 316.777344 229.09375 315.742188 231.773438 314.578125 234.324219 C 312.320312 235.140625 310.070312 235.960938 307.933594 236.898438 C 307.589844 239.78125 306.707031 243.230469 307.074219 246.113281 C 311.292969 249.90625 318.839844 249.046875 325.292969 250.828125 C 328.582031 251.734375 331.027344 253.558594 333.867188 254.257812 C 338.648438 263.761719 342.183594 274.519531 348.871094 282.121094 C 354.515625 282.546875 360.324219 282.8125 365.804688 283.40625 C 365.804688 283.90625 365.804688 284.40625 365.804688 284.90625 C 365.304688 285.910156 365.730469 287.835938 365.589844 289.195312 C 365.589844 291.050781 365.589844 292.910156 365.589844 294.765625 C 363.730469 294.765625 361.871094 294.765625 360.015625 294.765625 C 359.222656 294.902344 357.878906 294.488281 357.441406 294.980469 C 356.085938 294.980469 354.730469 294.980469 353.371094 294.980469 C 352.578125 295.117188 351.238281 294.703125 350.800781 295.195312 C 349.511719 295.195312 348.226562 295.195312 346.941406 295.195312 C 346.078125 295.332031 344.664062 294.917969 344.15625 295.410156 C 338.699219 295.8125 334.238281 297.210938 328.9375 297.765625 C 325.363281 297.765625 321.792969 297.765625 318.21875 297.765625 C 316.09375 296.105469 314.667969 293.746094 312.21875 292.410156 C 311.496094 292.050781 309.296875 292.050781 308.574219 292.40625 Z M 308.574219 292.40625 "/>
<path id='Jung-gu' style=" stroke:none;fill-rule:evenodd;fill:rgb(78.431373%,78.431373%,78.431373%);fill-opacity:1;" d="M 365.160156 309.769531 C 363.511719 312.980469 362.097656 316.425781 359.371094 318.558594 C 358.140625 319.609375 356.996094 320.753906 355.941406 321.984375 C 355.769531 322.027344 355.730469 322.203125 355.515625 322.199219 C 354.527344 323.144531 353.355469 323.902344 352.726562 325.203125 C 350.992188 330.113281 348.597656 334.359375 346.511719 338.917969 C 343.117188 337.597656 340.910156 335.089844 337.296875 333.988281 C 336.859375 333.496094 335.515625 333.910156 334.722656 333.773438 C 333.4375 333.773438 332.152344 333.773438 330.867188 333.773438 C 330.429688 333.285156 329.085938 333.699219 328.292969 333.558594 C 320.652344 334.703125 319.753906 329.097656 315.648438 326.703125 C 314.644531 326.203125 312.71875 326.628906 311.359375 326.488281 C 310.355469 326.625 308.792969 326.207031 308.144531 326.703125 C 306.71875 326.703125 305.289062 326.703125 303.859375 326.703125 C 302.710938 326.839844 301.003906 326.421875 300.214844 326.914062 C 294.417969 327.40625 288.511719 327.789062 282.855469 328.417969 C 281.558594 322.710938 279.730469 317.539062 277.710938 312.554688 C 281.644531 309.417969 286.066406 306.765625 288.425781 302.054688 C 293.929688 300.644531 298.988281 299.347656 303.644531 296.910156 C 306.484375 295.421875 307.554688 293.371094 312.003906 293.910156 C 313.699219 295.785156 315.488281 297.570312 317.363281 299.265625 C 327.726562 300.625 335.492188 297.539062 344.582031 296.910156 C 345.375 296.773438 346.71875 297.1875 347.15625 296.695312 C 348.441406 296.695312 349.726562 296.695312 351.011719 296.695312 C 351.875 296.558594 353.292969 296.972656 353.800781 296.480469 C 355.085938 296.480469 356.371094 296.480469 357.65625 296.480469 C 358.519531 296.34375 359.9375 296.757812 360.445312 296.265625 C 361.730469 296.265625 363.015625 296.265625 364.300781 296.265625 C 364.660156 296.265625 365.015625 296.265625 365.375 296.265625 C 365.375 297.480469 365.375 298.695312 365.375 299.910156 C 365.375 301.195312 365.375 302.484375 365.375 303.769531 C 364.882812 304.207031 365.296875 305.546875 365.160156 306.339844 C 365.160156 307.484375 365.160156 308.625 365.160156 309.769531 Z M 365.160156 309.769531 "/>
<path id='Jungnang-gu' style=" stroke:none;fill-rule:evenodd;fill:rgb(78.431373%,78.431373%,78.431373%);fill-opacity:1;" d="M 480.042969 203.246094 C 482.039062 206.605469 487.894531 206.109375 491.617188 207.746094 C 490.636719 212.917969 496.460938 214.53125 497.191406 218.25 C 497.949219 222.128906 495.191406 224.636719 494.832031 228.535156 C 492.980469 230.328125 490.746094 231.738281 489.257812 233.894531 C 489.257812 234.039062 489.257812 234.179688 489.257812 234.324219 C 488.902344 235.96875 488.902344 239.105469 489.257812 240.753906 C 489.570312 242.441406 490.730469 243.28125 491.1875 244.824219 C 491.1875 246.253906 491.1875 247.683594 491.1875 249.113281 C 486.644531 252.296875 489.851562 257.773438 488.402344 263.042969 C 487.660156 265.734375 481.652344 269.347656 480.257812 271.832031 C 479.589844 273.019531 479.671875 274.558594 479.1875 275.472656 C 477.703125 278.25 472.527344 279.949219 472.113281 282.976562 C 471.898438 284.535156 473.253906 285.625 473.828125 286.835938 C 473.828125 287.835938 473.828125 288.835938 473.828125 289.835938 C 473.515625 289.953125 472.71875 289.585938 472.753906 290.050781 C 465.730469 288.804688 462.507812 293.589844 457.324219 294.765625 C 452.261719 295.914062 447.609375 294.648438 441.675781 295.835938 C 439.667969 268.835938 434.742188 244.757812 435.03125 215.460938 C 440.09375 213.21875 444.90625 210.535156 450.035156 207.957031 C 452.621094 206.660156 454.535156 205.410156 458.394531 205.601562 C 459.117188 205.464844 460.386719 205.878906 460.753906 205.386719 C 461.894531 205.386719 463.039062 205.386719 464.183594 205.386719 C 464.902344 205.25 466.171875 205.664062 466.539062 205.171875 C 467.683594 205.171875 468.824219 205.171875 469.96875 205.171875 C 470.691406 205.035156 471.960938 205.449219 472.328125 204.957031 C 475.808594 205.296875 477.6875 204.03125 480.042969 203.246094 Z M 480.042969 203.246094 "/>
<path id='Mapo-gu' style=" stroke:none;fill-rule:evenodd;fill:rgb(78.431373%,78.431373%,78.431373%);fill-opacity:1;" d="M 172.6875 250.183594 C 175.527344 252.773438 175.503906 258.226562 181.261719 257.898438 C 183.816406 263.644531 188.800781 266.144531 193.691406 269.902344 C 196.84375 272.324219 200.277344 274.519531 203.121094 276.976562 C 208.554688 281.667969 212.660156 288.082031 217.484375 292.410156 C 219.878906 294.558594 222.851562 296.242188 225.199219 298.625 C 226.179688 299.785156 227.253906 300.855469 228.414062 301.839844 C 228.628906 301.839844 228.667969 302.011719 228.84375 302.054688 C 229.894531 303.285156 231.039062 304.429688 232.273438 305.480469 C 233.253906 306.644531 234.324219 307.714844 235.488281 308.699219 C 235.703125 308.695312 235.742188 308.871094 235.914062 308.910156 C 236.898438 310.074219 237.96875 311.144531 239.128906 312.125 C 240.074219 313.113281 240.832031 314.285156 242.128906 314.914062 C 247.765625 315.632812 256.335938 316.382812 262.707031 317.058594 C 265.136719 317.3125 267.828125 318.078125 269.566406 317.699219 C 272.324219 317.097656 273.554688 313.570312 276.425781 313.199219 C 277.101562 315.738281 278.5625 318.089844 279.425781 320.699219 C 280.117188 322.800781 281.613281 327.3125 281.566406 329.273438 C 281.523438 331.246094 279.433594 337.527344 278.78125 339.132812 C 276.625 344.453125 273.0625 348.433594 269.777344 352.421875 C 265.359375 357.792969 260.003906 362.890625 255.203125 366.996094 C 253.957031 365.941406 253.046875 364.585938 251.773438 363.566406 C 250.488281 362.535156 249.203125 361.570312 247.917969 360.566406 C 245.414062 358.613281 242.921875 356.378906 240.199219 354.78125 C 231.65625 349.753906 222.449219 346.425781 213.195312 342.992188 C 208.863281 341.382812 204.390625 338.992188 199.90625 336.773438 C 195.5625 334.628906 190.636719 332.824219 186.832031 330.34375 C 183.957031 328.472656 181.128906 325.332031 178.257812 322.84375 C 170.957031 316.515625 163.867188 310.589844 156.824219 304.195312 C 155.417969 302.917969 153.425781 301.527344 152.539062 300.339844 C 150.867188 298.105469 150.433594 294.960938 149.109375 292.621094 C 147.90625 290.496094 145.75 288.273438 143.964844 286.191406 C 141.035156 282.773438 138.707031 279.253906 134.75 277.40625 C 134.75 277.332031 134.75 277.261719 134.75 277.191406 C 138.300781 276.019531 141.8125 270.691406 145.464844 269.902344 C 149.382812 269.054688 153.464844 270.25 158.113281 269.472656 C 159.601562 268.070312 161.316406 266.429688 163.039062 264.542969 C 164.355469 263.109375 167.0625 260.769531 167.542969 259.1875 C 167.84375 258.183594 167.472656 257.078125 167.757812 256.1875 C 168.597656 253.519531 171.238281 252.503906 172.6875 250.183594 Z M 172.6875 250.183594 "/>
<path id='Nowon-gu' style=" stroke:none;fill-rule:evenodd;fill:rgb(78.431373%,78.431373%,78.431373%);fill-opacity:1;" d="M 464.398438 131.015625 C 464.179688 132.957031 462.828125 133.417969 462.46875 135.300781 C 462.136719 137.035156 462.578125 143.234375 463.109375 145.160156 C 463.488281 146.535156 466.019531 151.433594 466.96875 152.019531 C 469.523438 153.59375 473.847656 152.621094 477.042969 153.304688 C 480.515625 154.050781 483.441406 155.691406 486.472656 156.519531 C 487.648438 161.332031 486.574219 165.417969 487.757812 169.59375 C 488.675781 172.828125 491.957031 174.984375 490.757812 179.882812 C 489.398438 181.804688 488.484375 184.179688 486.902344 185.882812 C 484.933594 186.597656 483.152344 186.101562 481.542969 186.953125 C 480.207031 187.664062 478.121094 190.984375 477.898438 192.957031 C 477.578125 195.796875 478.875 198.355469 480.472656 200.027344 C 480.164062 200.582031 479.777344 201.050781 479.828125 201.957031 C 477.308594 202.582031 475.460938 203.878906 471.898438 203.457031 C 471.175781 203.59375 469.90625 203.183594 469.539062 203.671875 C 468.398438 203.671875 467.253906 203.671875 466.109375 203.671875 C 465.390625 203.808594 464.121094 203.398438 463.753906 203.886719 C 462.609375 203.886719 461.46875 203.886719 460.324219 203.886719 C 459.601562 204.023438 458.332031 203.609375 457.964844 204.101562 C 452.734375 204.1875 448.617188 207.265625 444.675781 209.246094 C 441.023438 211.082031 437.589844 212.46875 434.390625 214.390625 C 429.429688 213.132812 424.230469 212.117188 419.386719 210.746094 C 412.046875 201.082031 404.445312 190.535156 398.59375 180.097656 C 401.441406 179.871094 404.636719 179.992188 407.167969 179.453125 C 408.519531 175.414062 407.863281 170.722656 408.667969 166.808594 C 409.273438 163.871094 411.214844 160.832031 411.882812 157.589844 C 412.84375 152.933594 412.671875 147.082031 413.171875 141.730469 C 413.398438 139.273438 413.789062 136.625 414.027344 134.015625 C 414.257812 131.496094 414.769531 128.550781 414.457031 126.511719 C 414.007812 123.609375 412.191406 120.503906 411.027344 117.511719 C 409.917969 114.660156 407.925781 111.277344 407.597656 108.507812 C 407.40625 106.917969 408.015625 104.898438 408.238281 102.933594 C 408.445312 101.113281 408.316406 99.066406 408.667969 97.363281 C 409.585938 92.910156 412.527344 88.214844 413.597656 83.214844 C 414.527344 78.875 413.773438 73.910156 414.882812 70.140625 C 417.351562 66.214844 421.632812 66.476562 426.246094 63.925781 C 427.761719 63.085938 430.09375 61.292969 431.390625 60.066406 C 432.726562 58.804688 433.808594 56.464844 435.03125 55.996094 C 436.417969 55.460938 439.445312 55.253906 441.035156 55.566406 C 442.351562 55.828125 443.828125 57.636719 445.320312 58.78125 C 448.710938 61.386719 450.9375 62.972656 454.109375 65.425781 C 455.574219 66.5625 457.054688 68.28125 458.394531 68.855469 C 462.007812 70.40625 465.074219 69.578125 469.324219 71.214844 C 471.171875 77.828125 468.464844 79.59375 465.898438 83.429688 C 464.515625 85.496094 462.289062 88 462.253906 90.074219 C 462.21875 91.964844 464.578125 95.859375 465.46875 97.148438 C 466.902344 99.230469 470.765625 101.992188 471.46875 104.433594 C 472.445312 107.816406 471.269531 110.898438 472.113281 115.582031 C 470.703125 117.613281 465.398438 118.496094 464.398438 120.726562 C 463.621094 122.449219 464.519531 124.757812 464.183594 127.582031 C 464.320312 128.660156 463.902344 130.292969 464.398438 131.015625 Z M 464.398438 131.015625 "/>
<path id='Seocho-gu' style=" stroke:none;fill-rule:evenodd;fill:rgb(78.431373%,78.431373%,78.431373%);fill-opacity:1;" d="M 345.65625 380.714844 C 347.726562 386.003906 352.230469 390.847656 354.015625 396.789062 C 354.777344 399.335938 355.035156 402.554688 355.515625 405.363281 C 356.011719 408.289062 355.777344 411.757812 356.800781 414.148438 C 358.0625 417.101562 362.546875 418.902344 363.445312 421.652344 C 364.34375 424.417969 363.824219 428.492188 364.085938 431.941406 C 364.632812 439.105469 364.960938 445.914062 368.804688 449.515625 C 369.714844 450.605469 370.714844 451.605469 371.804688 452.515625 C 372.785156 453.675781 373.859375 454.75 375.019531 455.730469 C 377.226562 457.597656 380.65625 458.238281 383.164062 459.804688 C 385.21875 462.035156 387.359375 464.179688 389.59375 466.234375 C 392.25 476.9375 393.273438 489.273438 399.238281 496.667969 C 404.628906 495.054688 411.058594 492.632812 418.3125 492.167969 C 419.382812 490.78125 420.394531 489.433594 421.53125 487.667969 C 422.441406 486.253906 423.019531 484.011719 424.53125 482.953125 C 427.921875 480.574219 437.585938 478.507812 442.75 480.59375 C 444.351562 481.242188 445.179688 483.035156 446.605469 483.59375 C 447.109375 483.949219 447.070312 484.84375 447.035156 485.738281 C 447.167969 486.390625 446.761719 487.585938 447.25 487.882812 C 447.25 488.8125 447.25 489.738281 447.25 490.667969 C 447.390625 491.742188 446.96875 493.378906 447.464844 494.097656 C 447.464844 494.382812 447.464844 494.667969 447.464844 494.953125 C 448.992188 497.285156 450.929688 499.207031 452.394531 501.597656 C 457.070312 503.921875 460.796875 507.199219 463.539062 511.457031 C 461.191406 512.902344 455.964844 512.664062 454.539062 514.886719 C 453.449219 516.582031 454.644531 518.640625 454.324219 520.890625 C 453.984375 523.257812 451.855469 525.414062 451.964844 527.535156 C 449.269531 528.269531 445.175781 527.601562 443.605469 529.460938 C 442.367188 532.984375 442.25 536.386719 439.105469 538.035156 C 437.136719 539.070312 433.003906 539.5625 430.316406 540.179688 C 427.773438 540.765625 422.976562 541.132812 421.742188 542.539062 C 420.273438 544.210938 420.488281 548.257812 420.03125 550.683594 C 419.457031 553.710938 418.816406 556.183594 418.101562 558.613281 C 415.242188 558.613281 412.382812 558.613281 409.527344 558.613281 C 405.988281 558.363281 403.171875 557.394531 399.667969 557.113281 C 395.382812 554.40625 390.382812 550.878906 385.734375 547.894531 C 384.066406 546.824219 380.421875 545.816406 381.019531 543.394531 C 381.375 542.601562 381.375 540.328125 381.019531 539.535156 C 379.914062 532.425781 377.757812 526.367188 376.089844 519.816406 C 376.089844 519.03125 376.089844 518.246094 376.089844 517.460938 C 376.089844 516.746094 376.089844 516.03125 376.089844 515.316406 C 376.089844 512.816406 376.089844 510.316406 376.089844 507.816406 C 376.585938 507.023438 376.164062 505.316406 376.304688 504.171875 C 376.164062 502.597656 376.585938 500.457031 376.089844 499.242188 C 376.386719 495.414062 372.574219 495.96875 369.660156 495.382812 C 367.074219 494.863281 365.207031 493.78125 363.015625 494.097656 C 361.019531 494.386719 358.113281 497.027344 355.941406 498.382812 C 353.621094 499.835938 350.632812 501.121094 348.871094 502.671875 C 345.816406 505.355469 343.984375 509.574219 341.582031 511.457031 C 339.558594 511.8125 336.101562 511.8125 334.082031 511.457031 C 331.660156 509.265625 333.589844 505.222656 333.007812 502.027344 C 332.695312 500.292969 329.914062 497.328125 328.722656 496.882812 C 327.777344 496.53125 324.964844 496.164062 323.148438 496.882812 C 321.359375 497.59375 321.378906 499.738281 319.71875 500.957031 C 314.457031 494.359375 311.402344 485.554688 307.289062 477.808594 C 307.144531 474.949219 307.574219 471.523438 307.074219 469.019531 C 305.058594 462.5 305.316406 456.40625 306.429688 448.65625 C 307.027344 444.519531 307.515625 440.304688 308.359375 437.085938 C 308.816406 435.335938 310.144531 433.609375 310.074219 431.941406 C 309.988281 429.863281 308.269531 427.835938 307.503906 426.152344 C 306.550781 424.0625 305.914062 422.28125 304.929688 420.367188 C 301.894531 419.898438 298.535156 419.761719 295.070312 419.722656 C 294.402344 417.390625 293.816406 414.972656 293.355469 412.4375 C 301.882812 412.21875 308.757812 412.980469 314.789062 410.507812 C 317.601562 409.355469 320.515625 405.871094 322.933594 403.648438 C 331.046875 396.203125 338.882812 388.449219 345.65625 380.714844 Z M 345.65625 380.714844 "/>
<path id='Seodaemun-gu' style=" stroke:none;fill-rule:evenodd;fill:rgb(78.431373%,78.431373%,78.431373%);fill-opacity:1;" d="M 279.425781 294.765625 C 281.738281 297.3125 284.714844 299.191406 286.925781 301.839844 C 283.054688 308.753906 274.902344 311.390625 269.136719 316.414062 C 263.320312 315.773438 256.210938 314.957031 249.632812 314.269531 C 245.789062 313.867188 242.429688 314.203125 240.84375 311.699219 C 239.792969 310.464844 238.648438 309.324219 237.417969 308.269531 C 236.433594 307.109375 235.363281 306.035156 234.203125 305.054688 C 234.027344 305.011719 233.988281 304.839844 233.773438 304.839844 C 232.71875 303.605469 231.574219 302.464844 230.34375 301.410156 C 229.359375 300.25 228.289062 299.175781 227.128906 298.195312 C 221.480469 294.457031 216.207031 288.808594 211.480469 283.621094 C 209.738281 281.707031 205.261719 278.546875 204.835938 276.332031 C 204.625 275.210938 205.5625 269.1875 206.125 267.761719 C 206.515625 266.757812 207.386719 266.1875 208.050781 265.617188 C 208.855469 264.992188 209.570312 264.277344 210.195312 263.472656 C 210.195312 263.402344 210.195312 263.332031 210.195312 263.257812 C 211.070312 262.5625 211.855469 261.777344 212.554688 260.902344 C 213.101562 260.234375 213.457031 259.375 214.910156 259.617188 C 217.269531 259.617188 219.625 259.617188 221.984375 259.617188 C 223.34375 259.476562 225.265625 259.898438 226.269531 259.402344 C 229.050781 259.464844 231.667969 259.367188 234.199219 259.1875 C 236.914062 256.539062 238.652344 252.921875 239.988281 248.898438 C 244.65625 247.777344 248.445312 245.78125 252.632812 244.183594 C 253.707031 239.613281 255.402344 235.664062 257.5625 232.179688 C 261.109375 230.542969 263.34375 227.078125 269.136719 228.324219 C 269.136719 228.535156 269.136719 228.75 269.136719 228.964844 C 268.640625 230.109375 269.0625 232.179688 268.921875 233.679688 C 268.921875 235.324219 268.921875 236.96875 268.921875 238.609375 C 270.800781 240.515625 273.9375 241.167969 276.425781 242.46875 C 277.6875 247.277344 278.902344 252.136719 279.855469 257.257812 C 278.011719 262.921875 276.195312 269.683594 274.28125 276.121094 C 273.625 278.320312 272.386719 280.53125 272.351562 282.335938 C 272.304688 285.058594 274.214844 287.355469 274.710938 290.050781 C 275.40625 290.925781 276.191406 291.710938 277.066406 292.410156 C 277.765625 293.285156 278.550781 294.070312 279.425781 294.765625 Z M 279.425781 294.765625 "/>
<path id='Seongbuk-gu' style=" stroke:none;fill-rule:evenodd;fill:rgb(78.431373%,78.431373%,78.431373%);fill-opacity:1;" d="M 312.648438 168.09375 C 314.695312 169.5625 315.46875 173.035156 317.578125 174.523438 C 320.335938 176.472656 324.347656 176.285156 327.4375 177.953125 C 329.328125 178.972656 331.160156 180.820312 333.007812 182.238281 C 338.636719 186.5625 344.289062 191.070312 349.511719 195.3125 C 351.109375 202.152344 352.863281 208.824219 354.441406 215.675781 C 357.097656 217.09375 358.828125 219.4375 363.445312 218.890625 C 364.945312 218.890625 366.445312 218.890625 367.945312 218.890625 C 368.808594 218.753906 370.226562 219.167969 370.730469 218.675781 C 372.089844 218.675781 373.449219 218.675781 374.804688 218.675781 C 376.304688 218.675781 377.804688 218.675781 379.304688 218.675781 C 380.167969 218.539062 381.585938 218.953125 382.09375 218.460938 C 388.277344 219.289062 390.179688 215.832031 393.878906 214.175781 C 397.457031 207.105469 401.238281 200.242188 405.027344 193.386719 C 407.246094 196.179688 409.285156 199.410156 411.671875 202.816406 C 413.234375 205.050781 416.390625 210.789062 418.742188 212.03125 C 422.886719 214.222656 428.785156 213.53125 433.53125 215.890625 C 433.53125 216.890625 433.53125 217.890625 433.53125 218.890625 C 433.03125 222.25 433.460938 226.535156 433.316406 230.25 C 423.003906 233.652344 409.777344 234.144531 402.453125 240.539062 C 400.792969 242.019531 399.222656 243.59375 397.738281 245.253906 C 395.28125 248.941406 393.429688 253.230469 391.09375 257.042969 C 384.96875 259.113281 381.320312 261.652344 376.734375 265.1875 C 375.269531 266.316406 373.214844 267.132812 372.449219 268.402344 C 371.128906 270.570312 371.332031 274.351562 370.089844 276.976562 C 369.605469 277.996094 366.691406 281.667969 365.804688 281.90625 C 363.628906 282.484375 360.46875 281.449219 357.871094 281.261719 C 355.210938 281.070312 352.582031 280.902344 349.726562 280.832031 C 342.90625 273.296875 339.84375 261.996094 334.507812 252.96875 C 331.484375 252.34375 329.035156 250.203125 325.507812 249.324219 C 319.332031 247.792969 312.238281 248.511719 308.359375 245.253906 C 308.484375 242.589844 308.886719 240.207031 309.21875 237.753906 C 311.496094 237.101562 313.507812 236.183594 315.648438 235.394531 C 316.488281 232.125 318.9375 229.890625 319.292969 226.605469 C 319.960938 220.375 317.121094 215.453125 315.433594 210.960938 C 314.425781 208.277344 313.074219 205.453125 312.21875 202.601562 C 309.828125 194.632812 308.972656 186.332031 306.21875 179.667969 C 304.140625 178.171875 301.597656 177.140625 300 175.167969 C 302.808594 174.394531 305.648438 175.574219 307.71875 174.738281 C 310.359375 173.671875 310.519531 169.617188 312.648438 168.09375 Z M 312.648438 168.09375 "/>
<path id='Seongdong-gu' style=" stroke:none;fill-rule:evenodd;fill:rgb(78.431373%,78.431373%,78.431373%);fill-opacity:1;" d="M 374.804688 300.554688 C 375.734375 300.554688 376.660156 300.554688 377.589844 300.554688 C 379.871094 299.1875 379.402344 295.074219 383.808594 295.835938 C 384.105469 296.328125 385.296875 295.917969 385.949219 296.050781 C 389.988281 296.011719 393.683594 296.320312 397.523438 296.480469 C 398.617188 299.601562 399.554688 302.878906 400.523438 306.125 C 411.054688 309.8125 422.035156 313.050781 431.816406 317.484375 C 429.863281 329.191406 428.210938 338.710938 423.03125 346.851562 C 421.269531 349.613281 417.945312 351.738281 417.027344 354.566406 C 416.304688 356.796875 416.726562 359.292969 416.386719 361.425781 C 415.761719 365.320312 414.359375 368.675781 413.597656 372.570312 C 404.542969 367.960938 395.464844 361.097656 383.808594 358.421875 C 381.402344 357.871094 378.003906 357.957031 375.019531 357.78125 C 366.28125 357.269531 360.054688 358.179688 352.511719 359.925781 C 350.832031 353.246094 349.148438 346.570312 347.371094 339.992188 C 350.089844 335.566406 351.886719 330.21875 354.441406 325.628906 C 355.605469 324.648438 356.675781 323.578125 357.65625 322.414062 C 358.890625 321.363281 360.035156 320.21875 361.085938 318.984375 C 363.652344 316.765625 364.8125 313.136719 366.660156 310.199219 C 367.15625 309.480469 366.734375 307.84375 366.875 306.769531 C 366.875 305.554688 366.875 304.339844 366.875 303.125 C 367.367188 302.617188 366.949219 301.203125 367.089844 300.339844 C 367.089844 299.265625 367.089844 298.195312 367.089844 297.125 C 369.15625 297.984375 369.664062 300.410156 372.660156 300.339844 C 372.957031 300.828125 374.152344 300.417969 374.804688 300.554688 Z M 374.804688 300.554688 "/>
<path id='Songpa-gu' style=" stroke:none;fill-rule:evenodd;fill:rgb(78.431373%,78.431373%,78.431373%);fill-opacity:1;" d="M 489.472656 346.421875 C 490.882812 347.511719 491.808594 349.085938 492.902344 350.492188 C 494.578125 350.671875 496.339844 350.773438 498.261719 350.707031 C 501 355.175781 498.570312 362.03125 496.761719 366.78125 C 496.113281 368.480469 494.65625 370.722656 494.832031 371.925781 C 495.195312 374.402344 500.691406 376.1875 501.691406 378.355469 C 503.554688 381.851562 504.640625 386.125 506.835938 389.289062 C 509.402344 390.148438 512.972656 390.007812 516.050781 390.359375 C 518.535156 392.875 521.382812 395.03125 526.125 395.289062 C 524.921875 397.992188 523.320312 400.011719 521.625 402.789062 C 520.644531 404.394531 517.25 408.746094 517.550781 410.933594 C 517.800781 412.761719 520.640625 413.097656 521.195312 415.222656 C 521.832031 417.652344 520.746094 418.765625 521.195312 421.867188 C 525.507812 428.128906 535.722656 428.488281 543.273438 431.511719 C 544.203125 432.007812 546.054688 431.585938 547.34375 431.726562 C 547.84375 433.226562 547.417969 435.652344 547.558594 437.511719 C 542.460938 439.035156 539.933594 441.222656 538.554688 446.300781 C 537.566406 449.945312 538.089844 454.617188 536.839844 458.089844 C 535.867188 460.800781 533.683594 462.207031 532.554688 464.304688 C 530.0625 465.460938 527.175781 464.898438 525.480469 466.449219 C 524.585938 467.269531 523.140625 471.699219 522.480469 473.949219 C 522 475.59375 522.992188 477.734375 522.695312 479.09375 C 522.347656 480.695312 520.527344 481.554688 519.695312 482.523438 C 518.621094 482.664062 516.984375 482.242188 516.265625 482.738281 C 513.089844 483.082031 510.480469 482.140625 508.550781 483.167969 C 506.976562 484.003906 506.1875 487.308594 505.335938 489.167969 C 504.203125 491.625 503.332031 493.730469 502.332031 495.382812 C 499.796875 489.148438 496.503906 483.3125 492.902344 478.023438 C 491.671875 476.214844 489.875 474.476562 489.257812 472.664062 C 487.628906 467.855469 488.304688 462.347656 486.472656 457.015625 C 482.417969 453.929688 477.660156 451.539062 473.613281 448.445312 C 472.984375 446.570312 472.527344 444.527344 471.898438 442.65625 C 470.703125 441.28125 469.414062 439.996094 468.039062 438.800781 C 462.433594 437.074219 455.441406 437.328125 450.25 435.582031 C 448.492188 434.992188 446.5625 433.53125 444.675781 432.582031 C 440.378906 430.421875 437.734375 429.027344 434.390625 426.367188 C 432.925781 425.203125 430.953125 423.859375 430.101562 422.722656 C 428.332031 420.359375 427.710938 417.261719 426.03125 414.363281 C 425.890625 413.429688 426.308594 411.941406 425.816406 411.363281 C 425.816406 410.148438 425.816406 408.933594 425.816406 407.71875 C 425.816406 406.289062 425.816406 404.863281 425.816406 403.433594 C 425.679688 402.640625 426.09375 401.296875 425.601562 400.859375 C 425.601562 399.574219 425.601562 398.289062 425.601562 397.003906 C 425.601562 395.574219 425.601562 394.144531 425.601562 392.714844 C 425.464844 391.925781 425.878906 390.582031 425.386719 390.144531 C 425.386719 389.789062 425.386719 389.429688 425.386719 389.074219 C 427.023438 389.367188 428.5 389.816406 430.53125 389.714844 C 431.53125 389.714844 432.53125 389.714844 433.53125 389.714844 C 434.960938 389.714844 436.390625 389.714844 437.816406 389.714844 C 438.46875 389.582031 439.664062 389.988281 439.960938 389.5 C 441.890625 389.5 443.820312 389.5 445.75 389.5 C 446.472656 389.367188 447.738281 389.777344 448.105469 389.289062 C 451.789062 388.375 455.988281 388.175781 459.679688 386.714844 C 462.957031 385.417969 464.492188 382.925781 466.539062 380.285156 C 470.117188 375.667969 473.578125 371.230469 477.042969 366.78125 C 479.398438 363.753906 482.214844 360.894531 483.902344 357.78125 C 486 353.90625 487.558594 349.769531 489.472656 346.421875 Z M 489.472656 346.421875 "/>
<path id='Yangcheon-gu' style=" stroke:none;fill-rule:evenodd;fill:rgb(78.431373%,78.431373%,78.431373%);fill-opacity:1;" d="M 85.453125 344.707031 C 86.65625 342.550781 87.542969 340.078125 89.097656 338.277344 C 91.9375 338.570312 94.207031 337.148438 96.382812 337.632812 C 97.382812 337.855469 99.484375 339.800781 100.027344 340.632812 C 100.878906 341.933594 101.355469 344.066406 102.171875 345.992188 C 104.269531 350.945312 107.230469 357.386719 108.816406 361.851562 C 111.648438 364.703125 115.253906 365.9375 120.390625 366.996094 C 122.632812 367.460938 124.953125 368.234375 126.820312 368.070312 C 131.15625 367.683594 134.847656 364.527344 138.394531 363.566406 C 139.328125 359.519531 143.828125 355.644531 144.824219 351.992188 C 145.972656 347.773438 144.585938 342.683594 145.679688 338.917969 C 146.375 336.535156 148.09375 335.304688 149.324219 333.347656 C 152.0625 333.535156 153.964844 334.5625 156.183594 335.273438 C 158.546875 335.910156 162.386719 335.070312 164.757812 335.703125 C 167.578125 340.902344 169.054688 346.863281 171.828125 351.992188 C 172.566406 353.355469 174.144531 354.488281 174.617188 356.066406 C 175.355469 358.535156 174.554688 361.019531 175.257812 363.566406 C 171.488281 367.15625 167.152344 370.179688 163.46875 373.855469 C 163.46875 376 163.46875 378.140625 163.46875 380.285156 C 162.972656 382.074219 163.398438 384.785156 163.253906 386.929688 C 163.253906 390.503906 163.253906 394.074219 163.253906 397.648438 C 162.289062 402.96875 159.460938 406.425781 157.683594 410.933594 C 157.359375 411.46875 155.835938 410.804688 155.539062 411.363281 C 149.433594 411.59375 142.726562 412.59375 139.25 409.433594 C 138.117188 406.355469 137.167969 403.085938 136.035156 400.003906 C 134.175781 399.648438 132.09375 399.519531 129.820312 399.574219 C 129.453125 399.085938 128.183594 399.496094 127.460938 399.359375 C 126.390625 399.359375 125.320312 399.359375 124.246094 399.359375 C 119.566406 403.109375 115.75 407.726562 110.53125 410.933594 C 108.742188 410.933594 106.957031 410.933594 105.171875 410.933594 C 104.167969 411.074219 102.605469 410.65625 101.957031 411.148438 C 101.097656 411.148438 100.242188 411.148438 99.382812 411.148438 C 98.636719 408.824219 97.832031 406.558594 96.8125 404.503906 C 92.746094 403.714844 88.570312 403.03125 84.382812 402.363281 C 85.222656 399.125 89.230469 394.253906 89.738281 390.789062 C 90.488281 385.695312 89.738281 378.859375 89.738281 372.355469 C 89.738281 365.835938 90.660156 358.726562 89.738281 353.707031 C 89.0625 349.996094 86.011719 347.25 85.453125 344.707031 Z M 85.453125 344.707031 "/>
<path id='Yeongdeungpo-gu' style=" stroke:none;fill-rule:evenodd;fill:rgb(78.431373%,78.431373%,78.431373%);fill-opacity:1;" d="M 165.183594 374.070312 C 166.863281 372.699219 168.722656 370.992188 170.972656 369.140625 C 172.492188 367.886719 176.050781 365.867188 176.542969 363.996094 C 177.207031 361.488281 175.707031 358.984375 176.117188 355.636719 C 173.0625 351.855469 171.621094 347.546875 169.472656 342.5625 C 167.332031 337.597656 164.773438 333.847656 164.972656 327.128906 C 170.363281 330.871094 174.351562 336.453125 179.972656 340.203125 C 182.679688 342.007812 186.113281 343.160156 189.191406 344.707031 C 198.214844 349.242188 207.480469 354.34375 217.699219 357.351562 C 219.476562 365.933594 219.792969 374.710938 223.054688 381.355469 C 225.375 386.082031 229.964844 388.109375 233.988281 391.003906 C 233.988281 391.074219 233.988281 391.144531 233.988281 391.214844 C 229.730469 397.890625 225.621094 404.710938 222.414062 412.4375 C 222.457031 421.480469 220.644531 428.671875 217.699219 434.726562 C 213.714844 435.820312 208.03125 435.824219 204.625 437.511719 C 203.359375 438.140625 198.886719 442.148438 198.40625 443.300781 C 197.101562 446.453125 198.171875 450.683594 196.691406 454.445312 C 195.617188 454.511719 195 455.039062 194.121094 455.300781 C 191.148438 453.488281 188.335938 451.511719 185.546875 449.515625 C 185.546875 449.015625 185.546875 448.515625 185.546875 448.015625 C 185.414062 447.292969 185.824219 446.023438 185.335938 445.65625 C 185.335938 444.515625 185.335938 443.371094 185.335938 442.226562 C 185.199219 441.507812 185.609375 440.238281 185.121094 439.871094 C 185.121094 438.65625 185.121094 437.441406 185.121094 436.226562 C 184.984375 435.503906 185.394531 434.234375 184.90625 433.867188 C 185.996094 429.175781 182.429688 428.535156 181.476562 425.722656 C 180.460938 422.730469 180.609375 419.050781 179.761719 415.652344 C 178.925781 412.296875 178.136719 409.089844 177.402344 406.003906 C 173.351562 403.484375 169.054688 401.210938 164.972656 398.71875 C 164.972656 395.074219 164.972656 391.429688 164.972656 387.785156 C 164.972656 384.644531 164.972656 381.5 164.972656 378.355469 C 165.46875 377.351562 165.042969 375.429688 165.183594 374.070312 Z M 256.0625 385.859375 C 247.125 375.722656 237.921875 365.847656 224.339844 360.351562 C 225.226562 366.96875 226.289062 373.40625 228.414062 378.785156 C 230.855469 380.976562 233.984375 385.082031 237.414062 386.070312 C 241.773438 387.328125 246.523438 386.378906 251.988281 386.5 C 252.734375 385.773438 256.355469 386.921875 256.0625 385.859375 Z M 256.0625 385.859375 "/>
<path id='Yongsan-gu' style=" stroke:none;fill-rule:evenodd;fill:rgb(78.431373%,78.431373%,78.431373%);fill-opacity:1;" d="M 315.863281 328.84375 C 319.574219 331.335938 320.890625 336.195312 328.078125 335.0625 C 328.515625 335.550781 329.859375 335.136719 330.652344 335.273438 C 331.9375 335.273438 333.222656 335.273438 334.507812 335.273438 C 334.945312 335.765625 336.289062 335.351562 337.082031 335.488281 C 340.570312 336.859375 343.390625 338.898438 346.296875 340.847656 C 347.570312 347.582031 350.011719 354.28125 351.015625 360.566406 C 343.460938 365.214844 336.777344 372.640625 330.222656 379.855469 C 325.257812 385.324219 320.265625 389.652344 315.003906 394.644531 C 311.824219 397.664062 310.351562 399.757812 305.574219 400.21875 C 300.050781 400.753906 289.964844 400.933594 285.855469 399.359375 C 283.371094 398.410156 281.21875 395.253906 279.425781 393.144531 C 277.375 390.734375 275.386719 388.59375 273.636719 386.285156 C 272.769531 384.796875 271.425781 383.78125 270.210938 382.644531 C 269.273438 382.367188 268.863281 381.5625 268.28125 380.929688 C 267.441406 379.910156 266.511719 378.980469 265.496094 378.140625 C 264.726562 377.195312 263.871094 376.339844 262.921875 375.570312 C 260.570312 373.277344 258.480469 370.726562 256.277344 368.28125 C 267.359375 357.574219 279.25 347.671875 283.070312 329.703125 C 288.992188 329.410156 294.425781 328.628906 300.429688 328.417969 C 301.644531 328.417969 302.859375 328.417969 304.074219 328.417969 C 305.078125 328.277344 306.640625 328.695312 307.289062 328.203125 C 308.71875 328.203125 310.148438 328.203125 311.578125 328.203125 C 313.113281 328.308594 315.242188 327.824219 315.863281 328.84375 Z M 315.863281 328.84375 "/>
</g>
</svg>
